<?xml version="1.0" encoding="UTF-8"?>
<svg version="1.1" xmlns="http://www.w3.org/2000/svg" width="300" height="160">
<path d="M0 0 C0.66 0 1.32 0 2 0 C2.18433594 0.58265625 2.36867188 1.1653125 2.55859375 1.765625 C7.13471354 14.70079028 16.32682367 25.72069585 28.625 32 C29.40875 32.33 30.1925 32.66 31 33 C30.66226563 32.5153125 30.32453125 32.030625 29.9765625 31.53125 C24.17747076 22.81585201 23.5970912 16.31327552 25 6 C28.52875918 7.17625306 28.89842392 8.01143047 30.9375 11 C34.98085149 16.34330166 39.75948869 19.99016401 45.24658203 23.77929688 C47.16219151 25.11291528 49.04648817 26.48576441 50.93359375 27.859375 C52.26690025 28.80396193 53.6015174 29.74670184 54.9375 30.6875 C55.56398437 31.14632568 56.19046875 31.60515137 56.8359375 32.07788086 C58.8385132 33.51288525 58.8385132 33.51288525 62 35 C64.7400024 34.58525185 64.7400024 34.58525185 67 33 C67.68320313 32.58363281 68.36640625 32.16726562 69.0703125 31.73828125 C69.74835938 31.26777344 70.42640625 30.79726562 71.125 30.3125 C74.50453506 27.9922222 77.93528095 25.8175625 81.4375 23.6875 C89.02634911 18.88051833 95.51730506 13.11876108 101 6 C103.42513647 10.85027294 102.76078639 18.23642052 101.3515625 23.35546875 C98.89507239 28.61487706 94.96015669 32.81736259 91 37 C105.33035947 29.68749881 117.85029591 20.73492595 124.02734375 5.34765625 C125 3 125 3 127 0 C129.26184766 2.26184766 128.31096427 7.93700409 128.31689453 11.07641602 C128.06556519 26.005689 121.50025027 37.86489607 111.50390625 48.60546875 C107.35613086 52.57206207 102.79138562 55.85656065 98 59 C97.24332031 59.55042969 96.48664063 60.10085937 95.70703125 60.66796875 C91.98177304 62.50103231 88.53663078 62.60158154 84.4375 62.875 C72.78552823 63.93523294 63.07910046 67.14406296 55 76 C53.49286494 77.95242496 52.24934353 79.86570481 51 82 C48.96879293 78.95318939 48.75340125 78.39881676 48.8046875 74.98828125 C48.81113281 74.23095703 48.81757812 73.47363281 48.82421875 72.69335938 C48.84097656 71.90767578 48.85773437 71.12199219 48.875 70.3125 C48.88402344 69.51521484 48.89304688 68.71792969 48.90234375 67.89648438 C48.92588415 65.930861 48.96175453 63.96539225 49 62 C48.12859375 62.0928125 47.2571875 62.185625 46.359375 62.28125 C36.14904787 62.9000577 30.78137261 60.43289611 23 54 C22.175 53.35289063 21.35 52.70578125 20.5 52.0390625 C9.86272329 43.23455982 2.38663304 30.65864683 0 17 C-0.21081813 13.99197725 -0.19289052 11.01329472 -0.125 8 C-0.11597656 7.22527344 -0.10695312 6.45054688 -0.09765625 5.65234375 C-0.07439388 3.76809157 -0.0385364 1.88400168 0 0 Z " fill="#C03923" transform="translate(2,63)"/>
<path d="M0 0 C6.6 0 13.2 0 20 0 C20 9.24 20 18.48 20 28 C29.24 28 38.48 28 48 28 C48 34.6 48 41.2 48 48 C38.76 48 29.52 48 20 48 C20 57.24 20 66.48 20 76 C13.4 76 6.8 76 0 76 C0 66.76 0 57.52 0 48 C-9.24 48 -18.48 48 -28 48 C-28 41.4 -28 34.8 -28 28 C-18.76 28 -9.52 28 0 28 C0 18.76 0 9.52 0 0 Z " fill="#1F539F" transform="translate(56,15)"/>
<path d="M0 0 C6.04398781 3.61623472 10.66978026 8.56849829 12.90625 15.37109375 C14.79166158 25.69372216 14.22432867 35.66451994 8.6875 44.6875 C2.1942724 51.00523496 -3.91257285 51.37674236 -12.63671875 51.2890625 C-13.95285156 51.25554687 -15.26898438 51.22203125 -16.625 51.1875 C-17.98565073 51.16739985 -19.3463302 51.14915529 -20.70703125 51.1328125 C-24.013763 51.0859085 -27.31900416 51.02027725 -30.625 50.9375 C-30.625 49.6175 -30.625 48.2975 -30.625 46.9375 C-28.645 46.4425 -28.645 46.4425 -26.625 45.9375 C-26.5382438 41.64595978 -26.4846911 37.35464332 -26.4375 33.0625 C-26.41236328 31.83917969 -26.38722656 30.61585937 -26.36132812 29.35546875 C-26.35166016 28.18886719 -26.34199219 27.02226563 -26.33203125 25.8203125 C-26.3163208 24.74152832 -26.30061035 23.66274414 -26.28442383 22.55126953 C-26.39681396 21.68872559 -26.5092041 20.82618164 -26.625 19.9375 C-27.615 19.2775 -28.605 18.6175 -29.625 17.9375 C-29.955 18.5975 -30.285 19.2575 -30.625 19.9375 C-31.945 19.2775 -33.265 18.6175 -34.625 17.9375 C-35.52215419 9.68035867 -35.52215419 9.68035867 -33.53515625 5.8203125 C-25.70258601 -3.86132604 -10.94129288 -5.03067032 0 0 Z M-28.6875 11 C-29.96800204 13.07160175 -29.96800204 13.07160175 -28.625 15.9375 C-28.08875 15.174375 -27.5525 14.41125 -27 13.625 C-24.34656358 10.62242721 -22.3567032 9.35554722 -18.625 7.9375 C-15.25 7.75 -15.25 7.75 -12.625 7.9375 C-13.13103992 10.10624252 -13.62483813 11.93717627 -14.625 13.9375 C-14.71027628 15.96982634 -14.73216135 18.00497006 -14.72265625 20.0390625 C-14.71943359 21.25078125 -14.71621094 22.4625 -14.71289062 23.7109375 C-14.70451172 24.98195313 -14.69613281 26.25296875 -14.6875 27.5625 C-14.68298828 28.84125 -14.67847656 30.12 -14.67382812 31.4375 C-14.66201203 34.60421292 -14.64553815 37.77083356 -14.625 40.9375 C-8.11069638 41.11421477 -8.11069638 41.11421477 -2.625 37.9375 C1.44471597 33.86778403 1.67984648 30.65969058 1.8125 24.9375 C1.80593044 18.94605968 0.79927768 14.56563739 -3.34375 10.07421875 C-3.9315625 9.59597656 -4.519375 9.11773437 -5.125 8.625 C-5.7128125 8.13386719 -6.300625 7.64273438 -6.90625 7.13671875 C-14.13554258 2.09264415 -22.98743373 5.29993373 -28.6875 11 Z " fill="#1F539F" transform="translate(182.625,31.0625)"/>
<path d="M0 0 C3.07478008 2.07368889 4.3501644 3.3511608 5.6875 6.8125 C5.56106532 10.4791057 5.45851487 12.85644157 3.125 15.75 C2.650625 16.100625 2.17625 16.45125 1.6875 16.8125 C2.47125 17.410625 3.255 18.00875 4.0625 18.625 C6.79267681 20.90014734 8.49146093 22.48809649 9.0234375 26.08203125 C9.11165083 31.82471896 8.76820821 35.40963062 4.6875 39.8125 C-0.30324914 42.94954232 -4.40489967 43.32163557 -10.125 43.25 C-11.31778564 43.24516602 -11.31778564 43.24516602 -12.53466797 43.24023438 C-18.62688934 43.09544895 -23.01385556 41.95243745 -28.3125 38.8125 C-27.4375 33.9375 -27.4375 33.9375 -26.3125 32.8125 C-26.0586763 28.52693207 -26.127271 24.22969147 -26.125 19.9375 C-26.11275391 18.72707031 -26.10050781 17.51664063 -26.08789062 16.26953125 C-26.08595703 15.11066406 -26.08402344 13.95179687 -26.08203125 12.7578125 C-26.07792236 11.69062988 -26.07381348 10.62344727 -26.06958008 9.52392578 C-26.11444743 6.59148517 -26.11444743 6.59148517 -28.3125 3.8125 C-27.9375 1.625 -27.9375 1.625 -27.3125 -0.1875 C-26.49265625 -0.17589844 -25.6728125 -0.16429688 -24.828125 -0.15234375 C-23.75046875 -0.14332031 -22.6728125 -0.13429688 -21.5625 -0.125 C-20.49515625 -0.11339844 -19.4278125 -0.10179688 -18.328125 -0.08984375 C-1.74831567 -0.62675467 -1.74831567 -0.62675467 0 0 Z M-12.5625 4.5 C-14.44759577 5.71001355 -14.44759577 5.71001355 -15.3125 7.8125 C-15.38283769 9.68629605 -15.3968022 11.56251102 -15.375 13.4375 C-15.36597656 14.44039062 -15.35695312 15.44328125 -15.34765625 16.4765625 C-15.33605469 17.24742188 -15.32445312 18.01828125 -15.3125 18.8125 C-8.82850965 15.40499908 -8.82850965 15.40499908 -5.25 9.4375 C-5.270625 8.57125 -5.29125 7.705 -5.3125 6.8125 C-8.63084867 4.19246612 -8.63084867 4.19246612 -12.5625 4.5 Z M-11.3125 21.8125 C-10.9825 23.1325 -10.6525 24.4525 -10.3125 25.8125 C-8.6625 25.1525 -7.0125 24.4925 -5.3125 23.8125 C-5.6425 25.4625 -5.9725 27.1125 -6.3125 28.8125 C-8.9525 28.8125 -11.5925 28.8125 -14.3125 28.8125 C-14.6425 28.1525 -14.9725 27.4925 -15.3125 26.8125 C-15.72975678 30.18650578 -15.72975678 30.18650578 -15.3125 33.8125 C-13.29507918 36.07301003 -13.29507918 36.07301003 -10.3125 36.8125 C-6.57973257 36.21525721 -4.86614223 35.41804619 -2.3125 32.625 C-0.93175369 28.74165099 -1.82066145 26.57761634 -3.3125 22.8125 C-3.9725 22.1525 -4.6325 21.4925 -5.3125 20.8125 C-9.0888932 20.5143576 -9.0888932 20.5143576 -11.3125 21.8125 Z " fill="#EC1C23" transform="translate(176.3125,88.1875)"/>
<path d="M0 0 C2.7241562 2.7241562 2.3308802 4.3218734 2.375 8.125 C2.19688657 17.64882976 -1.19089471 22.56686795 -7.609375 29.3359375 C-9.21374894 30.89434044 -9.21374894 30.89434044 -9 33 C-10.94140625 34.296875 -10.94140625 34.296875 -13.5625 35.75 C-17.55032879 38.05370335 -20.96956269 40.46774102 -24.33203125 43.60546875 C-26 45 -26 45 -28.38671875 46.3828125 C-35.97728301 51.08011236 -41.71299573 58.28339232 -46 66 C-47.32 65.67 -48.64 65.34 -50 65 C-51.51398678 59.19638401 -50.48069427 55.84235878 -48.0078125 50.4296875 C-46.91460907 48.03578913 -46.91460907 48.03578913 -46.5390625 45.47265625 C-45.56693937 41.01356974 -42.63626373 37.64672354 -40 34 C-39.278125 32.96875 -38.55625 31.9375 -37.8125 30.875 C-33.41722267 25.77760169 -26.88925442 22.73194528 -21.19140625 19.31640625 C-12.91956502 14.23597043 -4.74880887 8.67570852 0 0 Z " fill="#C24024" transform="translate(102,69)"/>
<path d="M0 0 C2.64480039 0.01183356 5.23776404 0.09864559 7.875 0.25 C8.60847656 0.27707031 9.34195313 0.30414063 10.09765625 0.33203125 C15.50971378 0.63763013 15.50971378 0.63763013 17.66845703 2.2331543 C19.33151887 4.4398977 19.63772458 6.09274007 20.0625 8.81640625 C20.21976563 9.74517578 20.37703125 10.67394531 20.5390625 11.63085938 C20.84695354 13.58909856 21.1542429 15.54743245 21.4609375 17.50585938 C21.69683594 18.89708008 21.69683594 18.89708008 21.9375 20.31640625 C22.07027344 21.16662354 22.20304687 22.01684082 22.33984375 22.89282227 C22.87343552 25.36929691 22.87343552 25.36929691 26 27 C27.92135549 25.07864451 27.13255801 22.261596 27.13671875 19.70898438 C27.13091797 18.46084961 27.13091797 18.46084961 27.125 17.1875 C27.12886719 16.36701172 27.13273437 15.54652344 27.13671875 14.70117188 C27.13542969 13.90646484 27.13414062 13.11175781 27.1328125 12.29296875 C27.13168457 11.5661792 27.13055664 10.83938965 27.12939453 10.09057617 C26.99694968 7.95071725 26.58450089 6.05852276 26 4 C32.42789223 0.90966719 32.42789223 0.90966719 35.375 1.375 C35.91125 1.58125 36.4475 1.7875 37 2 C37.33 1.67 37.66 1.34 38 1 C41.4375 0.8125 41.4375 0.8125 45 1 C47 3 47 3 47.3125 5.5 C47.209375 6.325 47.10625 7.15 47 8 C46.01 8.66 45.02 9.32 44 10 C43.26656572 13.06556598 43.26656572 13.06556598 43 16 C41.68 15.67 40.36 15.34 39 15 C39 13.02 39 11.04 39 9 C38.34 9 37.68 9 37 9 C36.94617894 11.62527189 36.90641687 14.24944713 36.875 16.875 C36.85824219 17.62136719 36.84148437 18.36773437 36.82421875 19.13671875 C36.8066041 21.09194461 36.89679811 23.04742021 37 25 C37.66 25.66 38.32 26.32 39 27 C39 27.99 39 28.98 39 30 C30 30 21 30 12 30 C11.31164062 30.05800781 10.62328125 30.11601562 9.9140625 30.17578125 C5.56667281 30.43543763 3.62682784 30.45706197 0 27.8125 C-2.07916606 24.88867272 -3 23.56483292 -3 20 C-1.75 16.25 -1.75 16.25 0 13 C0.99 12.67 1.98 12.34 3 12 C3 11.34 3 10.68 3 10 C1.68 9.34 0.36 8.68 -1 8 C-1.04241723 5.66705225 -1.04092937 3.33297433 -1 1 C-0.67 0.67 -0.34 0.34 0 0 Z M7 6 C7.33 7.32 7.66 8.64 8 10 C7.01 10.495 7.01 10.495 6 11 C7.98 11.66 9.96 12.32 12 13 C11.67 11.02 11.34 9.04 11 7 C9.68 6.67 8.36 6.34 7 6 Z M7 18 C6.3185177 19.89179203 6.3185177 19.89179203 6 22 C6.66 22.66 7.32 23.32 8 24 C10.10820797 23.6814823 10.10820797 23.6814823 12 23 C12.33 21.35 12.66 19.7 13 18 C12.67 18.66 12.34 19.32 12 20 C9.525 19.01 9.525 19.01 7 18 Z " fill="#EC1C23" transform="translate(219,101)"/>
<path d="M0 0 C0.81210937 -0.020625 1.62421875 -0.04125 2.4609375 -0.0625 C7.16234826 -0.09312808 10.55464416 0.00598533 14.25 3.25 C15.86353873 6.69041657 16.66564801 9.95669206 17.25 13.69921875 C17.4975 15.21805664 17.4975 15.21805664 17.75 16.76757812 C18.08513701 18.89229441 18.41845127 21.01729896 18.75 23.14257812 C18.915 24.15126953 19.08 25.15996094 19.25 26.19921875 C19.394375 27.12049561 19.53875 28.04177246 19.6875 28.9909668 C20.08954317 31.43307818 20.08954317 31.43307818 22.25 33.25 C22.25 34.24 22.25 35.23 22.25 36.25 C20.29174127 36.27694851 18.33337774 36.29637218 16.375 36.3125 C14.73917969 36.32990234 14.73917969 36.32990234 13.0703125 36.34765625 C10.25 36.25 10.25 36.25 8.25 35.25 C7.71375 35.559375 7.1775 35.86875 6.625 36.1875 C3.17755071 37.72977995 -0.07432173 37.82255758 -3.75 37.25 C-7.12783054 35.56108473 -9.11362481 34.21839703 -11.1875 31.0625 C-12.27095297 25.64523517 -11.81757659 20.95812254 -8.875 16.25 C-5.96335137 13.50962482 -4.16916775 13.26470764 -0.1875 13.125 C3.25 13.25 3.25 13.25 5.25 14.25 C4.92 11.94 4.59 9.63 4.25 7.25 C3.26 7.58 2.27 7.91 1.25 8.25 C1.25 9.57 1.25 10.89 1.25 12.25 C-6.03358209 12.60820896 -6.03358209 12.60820896 -8.75 11.25 C-10.41130953 7.92738094 -9.98735237 4.92896174 -9.75 1.25 C-7.60552692 -0.89447308 -2.96113967 0.01844947 0 0 Z M0.25 21.25 C-1.02003323 22.30310277 -1.02003323 22.30310277 -0.9375 24.6875 C-1.01839983 27.41734675 -1.01839983 27.41734675 1.25 29.25 C3.85280568 28.92958603 3.85280568 28.92958603 6.25 28.25 C6.58 26.6 6.91 24.95 7.25 23.25 C6.651875 23.105625 6.05375 22.96125 5.4375 22.8125 C3.68849596 22.3627561 1.96322977 21.82107659 0.25 21.25 Z " fill="#1F539F" transform="translate(275.75,45.75)"/>
<path d="M0 0 C1.28970703 -0.05607422 1.28970703 -0.05607422 2.60546875 -0.11328125 C6.89418734 -0.17275501 9.11092788 -0.05829759 12.734375 2.3984375 C15.13711751 5.94667353 16.06174911 9.21774261 16.75 13.375 C16.94529297 14.51146973 16.94529297 14.51146973 17.14453125 15.67089844 C17.66541422 18.83960315 18.14279723 22.01371722 18.60546875 25.19140625 C19.178492 29.74100499 19.178492 29.74100499 21.75 33.375 C21.75 34.365 21.75 35.355 21.75 36.375 C17.79 36.375 13.83 36.375 9.75 36.375 C9.75 35.715 9.75 35.055 9.75 34.375 C8.925 34.87 8.1 35.365 7.25 35.875 C2.20553018 38.03691564 -1.79566545 38.30219305 -7.0625 36.3125 C-10.49615554 33.27126223 -12.08509315 29.93105621 -12.3828125 25.31640625 C-12.12375516 21.28577878 -11.46242429 19.6309985 -8.8125 16.4375 C-4.76224062 13.17753514 -2.43250505 13.18991053 2.75 13.375 C3.41 13.705 4.07 14.035 4.75 14.375 C4.42 12.395 4.09 10.415 3.75 8.375 C2.76 8.375 1.77 8.375 0.75 8.375 C0.75 9.695 0.75 11.015 0.75 12.375 C-6.53358209 12.73320896 -6.53358209 12.73320896 -9.25 11.375 C-10.91130953 8.05238094 -10.48735237 5.05396174 -10.25 1.375 C-8.00599871 -0.86900129 -3.01018753 0.04876592 0 0 Z M0.75 21.375 C0.09 22.035 -0.57 22.695 -1.25 23.375 C-0.92958603 25.97780568 -0.92958603 25.97780568 -0.25 28.375 C2.14719432 29.05458603 2.14719432 29.05458603 4.75 29.375 C5.41 28.715 6.07 28.055 6.75 27.375 C6.4314823 25.26679203 6.4314823 25.26679203 5.75 23.375 C5.09 23.375 4.43 23.375 3.75 23.375 C3.42 22.715 3.09 22.055 2.75 21.375 C2.09 21.375 1.43 21.375 0.75 21.375 Z " fill="#1F539F" transform="translate(211.25,45.625)"/>
<path d="M0 0 C0 4.95 0 9.9 0 15 C0.66 14.67 1.32 14.34 2 14 C4.05859375 13.796875 4.05859375 13.796875 6.4375 13.75 C7.21996094 13.72421875 8.00242188 13.6984375 8.80859375 13.671875 C11 14 11 14 12.72265625 15.265625 C14.93645025 18.27151043 15.12502459 21.53780844 15.28125 25.1875 C15.31863281 25.96867187 15.35601562 26.74984375 15.39453125 27.5546875 C15.46484375 29.18489583 15.53515625 30.81510417 15.60546875 32.4453125 C15.64285156 33.22648437 15.68023437 34.00765625 15.71875 34.8125 C15.74904297 35.52019531 15.77933594 36.22789063 15.81054688 36.95703125 C15.9805168 39.35250265 15.9805168 39.35250265 17 43 C12.71 43 8.42 43 4 43 C4.33 41.68 4.66 40.36 5 39 C5.07766084 37.55901569 5.10796367 36.11491371 5.09765625 34.671875 C5.09282227 33.47304687 5.09282227 33.47304687 5.08789062 32.25 C5.07951172 31.425 5.07113281 30.6 5.0625 29.75 C5.05798828 28.90953125 5.05347656 28.0690625 5.04882812 27.203125 C5.03707961 25.13538599 5.01914522 23.06768376 5 21 C4.01 21 3.02 21 2 21 C0.4279876 24.14402481 0.81553256 27.48947397 0.8125 30.9375 C0.80025391 31.66646484 0.78800781 32.39542969 0.77539062 33.14648438 C0.76487315 36.9713391 0.82904376 38.74356564 3 42 C2 43 2 43 -0.94140625 43.09765625 C-2.13636719 43.08605469 -3.33132812 43.07445312 -4.5625 43.0625 C-6.35880859 43.04896484 -6.35880859 43.04896484 -8.19140625 43.03515625 C-9.11824219 43.02355469 -10.04507813 43.01195312 -11 43 C-10.49396008 40.83125748 -10.00016187 39.00032373 -9 37 C-8.91413191 34.67583704 -8.89288957 32.34916693 -8.90234375 30.0234375 C-8.9037587 29.33819 -8.90517365 28.6529425 -8.90663147 27.94692993 C-8.91223325 25.75624239 -8.92478594 23.5656567 -8.9375 21.375 C-8.94251478 19.89062648 -8.94707772 18.40625135 -8.95117188 16.921875 C-8.96220323 13.28121685 -8.97946901 9.64061836 -9 6 C-9.66 6 -10.32 6 -11 6 C-11 5.01 -11 4.02 -11 3 C-4.5 0 -4.5 0 0 0 Z " fill="#EC1C23" transform="translate(198,88)"/>
<path d="M0 0 C3.90890278 2.60593519 4.67536585 5.69232339 6.1875 9.9375 C6.46013672 10.66646484 6.73277344 11.39542969 7.01367188 12.14648438 C8.13545859 15.213826 9 17.70957867 9 21 C11.52259061 19.02579865 11.9929808 18.03254358 12.6875 14.8125 C12.790625 13.884375 12.89375 12.95625 13 12 C11.68 12.33 10.36 12.66 9 13 C6.67250655 9.50875983 6.49700684 8.10777749 7 4 C8.625 1.625 8.625 1.625 11 0 C14.79079343 -0.64524143 16.47589307 -0.30281734 19.8125 1.625 C22.51237437 4.55629218 22.7661495 6.05317633 23 10 C21.890625 13.03515625 21.890625 13.03515625 20.25 16.0625 C19.45335937 17.56490234 19.45335937 17.56490234 18.640625 19.09765625 C17.56757105 20.99593979 16.4488571 22.86930267 15.28125 24.7109375 C13.74795992 26.93930418 13.74795992 26.93930418 14.25 29.5625 C14.4975 30.366875 14.745 31.17125 15 32 C15.33 33.32 15.66 34.64 16 36 C10.72 36 5.44 36 0 36 C0.33 33.69 0.66 31.38 1 29 C0.61028578 26.5921881 0.61028578 26.5921881 -0.29296875 24.44921875 C-0.59396484 23.66869141 -0.89496094 22.88816406 -1.20507812 22.08398438 C-1.69137695 20.89772461 -1.69137695 20.89772461 -2.1875 19.6875 C-2.49236328 18.87732422 -2.79722656 18.06714844 -3.11132812 17.23242188 C-4.69228443 12.76761452 -4.69228443 12.76761452 -8.12231445 9.75708008 C-9.0517688 9.38232544 -9.0517688 9.38232544 -10 9 C-10 8.01 -10 7.02 -10 6 C-9.0925 5.566875 -8.185 5.13375 -7.25 4.6875 C-4.56781551 3.29482729 -2.33860395 1.88887243 0 0 Z " fill="#1F539F" transform="translate(240,46)"/>
<path d="M0 0 C0.66 0 1.32 0 2 0 C2.18433594 0.58265625 2.36867188 1.1653125 2.55859375 1.765625 C6.81525615 13.79779073 15.38012472 25.19006236 27 31 C27 38.92 27 46.84 27 55 C18.71438601 52.9285965 13.13413127 45.54380964 8.56640625 38.64453125 C2.74262912 28.81236887 -0.38202734 19.40805949 -0.125 8 C-0.11597656 7.22527344 -0.10695312 6.45054688 -0.09765625 5.65234375 C-0.07439388 3.76809157 -0.0385364 1.88400168 0 0 Z " fill="#E23823" transform="translate(2,63)"/>
<path d="M0 0 C1.32 0.33 2.64 0.66 4 1 C4 3.97 4 6.94 4 10 C5.32 10 6.64 10 8 10 C8 11.65 8 13.3 8 15 C6.68 15 5.36 15 4 15 C4 20.94 4 26.88 4 33 C6.475 32.505 6.475 32.505 9 32 C9.33 32.66 9.66 33.32 10 34 C8.5 36.5 8.5 36.5 6 39 C2.99962274 39.73047414 1.16799328 39.45257047 -2 39 C-4.05415026 36.93452971 -4.91039339 35.60251613 -5.34057617 32.70996094 C-5.32486572 31.89301758 -5.30915527 31.07607422 -5.29296875 30.234375 C-5.28330078 29.34492187 -5.27363281 28.45546875 -5.26367188 27.5390625 C-5.23853516 26.61867188 -5.21339844 25.69828125 -5.1875 24.75 C-5.16719727 23.34621094 -5.16719727 23.34621094 -5.14648438 21.9140625 C-5.11119954 19.60878673 -5.06190281 17.3046894 -5 15 C-5.99 15 -6.98 15 -8 15 C-8 13.68 -8 12.36 -8 11 C-6.8553125 10.38125 -6.8553125 10.38125 -5.6875 9.75 C-1.75854618 7.19161147 -1.37481779 4.4138887 0 0 Z " fill="#EC1C23" transform="translate(275,92)"/>
<path d="M0 0 C3.55716979 1.18572326 4.07266425 2.18855239 6.1875 5.1875 C8.70870462 8.66223714 10.63481694 10.45343143 14.4375 12.375 C16.46484375 13.71875 16.46484375 13.71875 18 16 C19.03300643 22.25888889 18.44857534 28.70748475 18 35 C10.34699022 31.17349511 5.40825283 27.31824646 1.1875 19.75 C-0.88901771 13.19257567 -1.60297428 6.7276345 0 0 Z " fill="#E43722" transform="translate(27,69)"/>
<path d="M0 0 C4.26511313 1.70604525 6.61418999 3.09787714 10 6 C8.64387109 8.90599053 7.04656224 11.31623577 5.125 13.875 C1.65128655 18.94153815 0.30148767 24.23599798 -1.140625 30.15625 C-1.42421875 31.0946875 -1.7078125 32.033125 -2 33 C-2.99 33.495 -2.99 33.495 -4 34 C-4 33.34 -4 32.68 -4 32 C-6.31 32 -8.62 32 -11 32 C-10.67 25.73 -10.34 19.46 -10 13 C-5 15 -5 15 0 18 C0 12.06 0 6.12 0 0 Z " fill="#582E22" transform="translate(55,93)"/>
<path d="M0 0 C0.01981934 0.68102783 0.03963867 1.36205566 0.06005859 2.0637207 C0.15526983 5.14703917 0.26496466 8.22967649 0.375 11.3125 C0.4059375 12.38435547 0.436875 13.45621094 0.46875 14.56054688 C0.50742187 15.58857422 0.54609375 16.61660156 0.5859375 17.67578125 C0.6173584 18.62364502 0.6487793 19.57150879 0.68115234 20.5480957 C0.8489051 23.2530269 0.8489051 23.2530269 3 26 C3 26.99 3 27.98 3 29 C-1.29 29 -5.58 29 -10 29 C-9.67 27.68 -9.34 26.36 -9 25 C-8.9117252 23.6062575 -8.8694133 22.20903344 -8.8671875 20.8125 C-8.86589844 20.03132813 -8.86460937 19.25015625 -8.86328125 18.4453125 C-8.86714844 17.63835937 -8.87101562 16.83140625 -8.875 16 C-8.86919922 14.78957031 -8.86919922 14.78957031 -8.86328125 13.5546875 C-8.86457031 12.77351563 -8.86585938 11.99234375 -8.8671875 11.1875 C-8.86831543 10.47980469 -8.86944336 9.77210937 -8.87060547 9.04296875 C-9.00488498 6.92287267 -9.42283502 5.04042437 -10 3 C-3.375 0 -3.375 0 0 0 Z " fill="#EC1C23" transform="translate(295,102)"/>
<path d="M0 0 C3.465 1.485 3.465 1.485 7 3 C7 10.92 7 18.84 7 27 C6.34 27.33 5.68 27.66 5 28 C0.84064821 26.29304524 0.84064821 26.29304524 -1 24 C-1.64085954 19.88041142 -1.23977424 15.88730779 -0.875 11.75 C-0.80023437 10.62335938 -0.72546875 9.49671875 -0.6484375 8.3359375 C-0.45983921 5.55411268 -0.24276499 2.77753575 0 0 Z " fill="#AB4625" transform="translate(29,95)"/>
<path d="M0 0 C0.66 0.33 1.32 0.66 2 1 C-0.31 3.31 -2.62 5.62 -5 8 C-4.505 8.598125 -4.01 9.19625 -3.5 9.8125 C-2 12 -2 12 -2 15 C-3.9765625 16.359375 -3.9765625 16.359375 -6.625 17.75 C-10.87122705 20.15839752 -13.77815971 22.53283425 -16.74609375 26.38671875 C-18.05125793 28.06594868 -19.47101759 29.52450969 -21 31 C-22.00496852 27.98509443 -22.10335303 25.95818308 -22.0625 22.8125 C-22.05347656 21.91144531 -22.04445312 21.01039063 -22.03515625 20.08203125 C-22.02355469 19.39496094 -22.01195312 18.70789063 -22 18 C-21.67 18.66 -21.34 19.32 -21 20 C-18.97536745 20.65213292 -18.97536745 20.65213292 -17 21 C-16.75765625 20.27683594 -16.5153125 19.55367187 -16.265625 18.80859375 C-14.83404535 15.63172409 -13.11748557 13.61117069 -10.75 11.0625 C-9.95207031 10.20011719 -9.15414062 9.33773437 -8.33203125 8.44921875 C-5.6008637 5.5808066 -2.83672155 2.7639851 0 0 Z " fill="#522C21" transform="translate(73,114)"/>
<path d="M0 0 C1.98 0.99 3.96 1.98 6 3 C5.67 8.94 5.34 14.88 5 21 C3.35 20.67 1.7 20.34 0 20 C-1.17829199 17.64341603 -1.04414372 16.47426764 -0.87890625 13.8671875 C-0.83056641 13.06152344 -0.78222656 12.25585938 -0.73242188 11.42578125 C-0.67634766 10.58402344 -0.62027344 9.74226563 -0.5625 8.875 C-0.51029297 8.02550781 -0.45808594 7.17601563 -0.40429688 6.30078125 C-0.27448622 4.20020876 -0.1378826 2.10005809 0 0 Z " fill="#B44825" transform="translate(45,86)"/>
<path d="M0 0 C2.475 0.99 2.475 0.99 5 2 C4.01 2.495 4.01 2.495 3 3 C3 10.26 3 17.52 3 25 C2.34 25.33 1.68 25.66 1 26 C0.34 25.67 -0.32 25.34 -1 25 C-0.67 16.75 -0.34 8.5 0 0 Z " fill="#964024" transform="translate(36,99)"/>
<path d="M0 0 C1.32 0.66 2.64 1.32 4 2 C-2.15034169 10.44646925 -2.15034169 10.44646925 -6 14 C-7.00496852 10.98509443 -7.10335303 8.95818308 -7.0625 5.8125 C-7.05347656 4.91144531 -7.04445312 4.01039063 -7.03515625 3.08203125 C-7.02355469 2.39496094 -7.01195312 1.70789063 -7 1 C-6.67 1.66 -6.34 2.32 -6 3 C-3.97536745 3.65213292 -3.97536745 3.65213292 -2 4 C-1.34 2.68 -0.68 1.36 0 0 Z " fill="#292020" transform="translate(58,131)"/>
<path d="M0 0 C0.625 2.875 0.625 2.875 1 6 C-1 8 -1 8 -3.5 8.25 C-6 8 -6 8 -8 6 C-7.75 2.9375 -7.75 2.9375 -7 0 C-4.3333581 -1.33332095 -2.83319697 -0.67102033 0 0 Z " fill="#EC1C23" transform="translate(295,93)"/>
<path d="M0 0 C0.99 0.33 1.98 0.66 3 1 C3 6.94 3 12.88 3 19 C1.68 18.67 0.36 18.34 -1 18 C-0.505 9.09 -0.505 9.09 0 0 Z " fill="#623122" transform="translate(45,106)"/>
<path d="M0 0 C1.485 0.99 1.485 0.99 3 2 C3.2487793 4.24658203 3.2487793 4.24658203 3.07421875 7.0078125 C3.01943359 7.99394531 2.96464844 8.98007813 2.90820312 9.99609375 C2.83537109 11.02863281 2.76253906 12.06117187 2.6875 13.125 C2.62626953 14.16527344 2.56503906 15.20554687 2.50195312 16.27734375 C2.34837505 18.85273 2.18048829 21.42638232 2 24 C1.01 24 0.02 24 -1 24 C-0.67 16.08 -0.34 8.16 0 0 Z " fill="#C04C26" transform="translate(29,95)"/>
<path d="M0 0 C0.66 0 1.32 0 2 0 C2 6.27 2 12.54 2 19 C0.68 18.34 -0.64 17.68 -2 17 C-1.34 17 -0.68 17 0 17 C0 11.39 0 5.78 0 0 Z " fill="#7E3923" transform="translate(53,92)"/>
<path d="M0 0 C2.97 1.98 2.97 1.98 6 4 C4.46126823 7.71860179 3.52488612 8.35633541 0 11 C0 7.37 0 3.74 0 0 Z " fill="#3F2721" transform="translate(59,95)"/>
<path d="M0 0 C0.33 0.66 0.66 1.32 1 2 C3.01669827 3.13350534 3.01669827 3.13350534 5 4 C4.01 6.31 3.02 8.62 2 11 C1.34 10.67 0.68 10.34 0 10 C0 6.7 0 3.4 0 0 Z " fill="#4D2B21" transform="translate(51,132)"/>
<path d="M0 0 C0.99 0.495 0.99 0.495 2 1 C2.4140625 3.72265625 2.4140625 3.72265625 2.625 7.0625 C2.69976562 8.16722656 2.77453125 9.27195312 2.8515625 10.41015625 C2.90054688 11.26480469 2.94953125 12.11945313 3 13 C2.01 13.66 1.02 14.32 0 15 C0 10.05 0 5.1 0 0 Z " fill="#603022" transform="translate(57,94)"/>
<path d="M0 0 C2.12508244 3.18762365 2.5020163 5.26512223 3 9 C2.01 9.66 1.02 10.32 0 11 C0 7.37 0 3.74 0 0 Z " fill="#4E2C21" transform="translate(59,95)"/>
</svg>
